<svg width="25" height="35" viewBox="0 0 25 35" fill="none" xmlns="http://www.w3.org/2000/svg">
<path d="M11.857 0C5.1575 0 -0.16774 5.95 0.00404201 12.775C0.175824 17.325 2.75255 21.175 6.35997 23.1C8.76492 24.325 10.311 26.775 10.311 29.4V29.75C10.311 32.725 12.5441 35 15.4644 35C22.3357 35 24.0535 26.25 24.0535 12.25C24.0535 12.25 24.0535 0 11.857 0ZM15.4644 31.5C14.4337 31.5 13.7466 30.8 13.7466 29.75V29.4C13.7466 25.55 11.5134 21.875 8.07779 19.95C5.32928 18.55 3.61146 15.75 3.43968 12.6C3.43968 10.325 4.29859 7.875 5.84463 6.125C7.39066 4.375 9.62383 3.5 11.6852 3.5C20.1025 3.5 20.6179 10.85 20.6179 12.25C20.6179 29.575 17.6976 31.5 15.4644 31.5ZM18.5565 9.8L5.67285 14.525C5.32928 14 5.1575 13.3 5.1575 12.425C5.1575 11.2 5.50106 10.15 6.01641 8.925L14.9491 5.6C17.0105 6.65 18.0411 8.225 18.5565 9.8ZM13.5748 22.925L18.3847 21.175C18.2129 23.8 17.6976 25.725 17.354 26.95L15.1209 27.825C15.1209 26.075 14.6055 24.5 13.5748 22.925ZM18.9001 12.6C18.9001 14.7 18.9001 16.625 18.7283 18.2L11.857 20.825C10.9981 19.95 9.96739 19.075 8.76492 18.55C8.07779 18.2 7.39067 17.675 6.87532 17.15L18.9001 12.6Z" fill="#043258"/>
</svg>
