<svg width="43" height="34" viewBox="0 0 43 34" fill="none" xmlns="http://www.w3.org/2000/svg">
<path d="M27.058 22.9999L33.831 16.2419C34.2259 15.848 34.6947 15.5356 35.2106 15.3225C35.7265 15.1094 36.2794 14.9998 36.8377 14.9999H37.0803C38.1435 14.9999 39.1632 15.4213 39.915 16.1715C40.6668 16.9216 41.0892 17.939 41.0892 18.9999C41.0892 20.0607 40.6668 21.0782 39.915 21.8283C39.1632 22.5784 38.1435 22.9999 37.0803 22.9999H5.00892C3.94569 22.9999 2.926 22.5784 2.17418 21.8283C1.42237 21.0782 1 20.0607 1 18.9999C1 17.939 1.42237 16.9216 2.17418 16.1715C2.926 15.4213 3.94569 14.9999 5.00892 14.9999H14.0591C17.2482 15 20.3067 16.264 22.562 18.5139L27.058 22.9999ZM3.00446 22.9999H39.0847V26.9999C39.0847 28.5912 38.4512 30.1173 37.3235 31.2425C36.1957 32.3677 34.6662 32.9999 33.0714 32.9999H9.01784C7.42299 32.9999 5.89346 32.3677 4.76574 31.2425C3.63801 30.1173 3.00446 28.5912 3.00446 26.9999V22.9999Z" stroke="#043258" stroke-width="2" stroke-linecap="round" stroke-linejoin="round"/>
<path d="M21.0446 0.999878C11.7779 0.999878 4.14295 4.51188 3.12068 12.9999C2.98839 14.0999 3.90242 14.9999 5.00888 14.9999H37.0802C38.1867 14.9999 39.1007 14.0999 38.9684 12.9999C37.9462 4.51188 30.3112 0.999878 21.0446 0.999878Z" stroke="#043258" stroke-width="2" stroke-linecap="round" stroke-linejoin="round"/>
</svg>
