<svg width="50" height="50" viewBox="0 0 50 50" fill="none" xmlns="http://www.w3.org/2000/svg">
<path d="M35.4166 37.5C36.5217 37.5 37.5815 37.9389 38.3629 38.7204C39.1443 39.5018 39.5833 40.5616 39.5833 41.6666C39.5833 42.7717 39.1443 43.8315 38.3629 44.6129C37.5815 45.3943 36.5217 45.8333 35.4166 45.8333C34.3115 45.8333 33.2517 45.3943 32.4703 44.6129C31.6889 43.8315 31.2499 42.7717 31.2499 41.6666C31.2499 39.3541 33.1041 37.5 35.4166 37.5ZM2.08325 4.16663H8.89575L10.8541 8.33329H41.6666C42.2191 8.33329 42.749 8.55279 43.1397 8.94349C43.5304 9.33419 43.7499 9.86409 43.7499 10.4166C43.7499 10.7708 43.6458 11.125 43.4999 11.4583L36.0416 24.9375C35.3333 26.2083 33.9583 27.0833 32.3958 27.0833H16.8749L14.9999 30.4791L14.9374 30.7291C14.9374 30.8673 14.9923 30.9997 15.09 31.0974C15.1876 31.1951 15.3201 31.25 15.4583 31.25H39.5833V35.4166H14.5833C13.4782 35.4166 12.4184 34.9776 11.637 34.1962C10.8556 33.4148 10.4166 32.355 10.4166 31.25C10.4166 30.5208 10.6041 29.8333 10.9166 29.25L13.7499 24.1458L6.24992 8.33329H2.08325V4.16663ZM14.5833 37.5C15.6883 37.5 16.7481 37.9389 17.5295 38.7204C18.3109 39.5018 18.7499 40.5616 18.7499 41.6666C18.7499 42.7717 18.3109 43.8315 17.5295 44.6129C16.7481 45.3943 15.6883 45.8333 14.5833 45.8333C13.4782 45.8333 12.4184 45.3943 11.637 44.6129C10.8556 43.8315 10.4166 42.7717 10.4166 41.6666C10.4166 39.3541 12.2708 37.5 14.5833 37.5ZM33.3333 22.9166L39.1249 12.5H12.7916L17.7083 22.9166H33.3333Z" fill="#043258"/>
</svg>
