<svg width="26" height="26" viewBox="0 0 26 26" fill="none" xmlns="http://www.w3.org/2000/svg">
<g clip-path="url(#clip0_117_17387)">
<path d="M24.674 13.3687L12.5938 1.28848C12.4432 1.13713 12.2641 1.01714 12.0669 0.935436C11.8697 0.853737 11.6582 0.811955 11.4447 0.812505H3.25C2.60376 0.813245 1.9842 1.07029 1.52724 1.52725C1.07028 1.98421 0.813239 2.60377 0.8125 3.25001V11.4297C0.81287 11.6516 0.858507 11.8711 0.946617 12.0747C1.03473 12.2784 1.16346 12.4619 1.32493 12.6141L14.1757 24.686C14.4009 24.8989 14.6991 25.0172 15.009 25.0166C15.0241 25.0166 15.0394 25.0163 15.0547 25.0158C15.2158 25.0104 15.3742 24.9729 15.5207 24.9054C15.6671 24.838 15.7985 24.742 15.9073 24.623L24.7092 15.0556C24.9228 14.8245 25.0384 14.5196 25.0318 14.205C25.0253 13.8905 24.897 13.5907 24.674 13.3687ZM14.9892 23.2207L2.4375 11.4297V3.25001C2.43777 3.0346 2.52346 2.82809 2.67577 2.67578C2.82809 2.52346 3.03459 2.43777 3.25 2.43751H11.4447L23.2494 14.2422L14.9892 23.2207Z" fill="#043258"/>
<path d="M7.51563 4.875C6.99336 4.875 6.48282 5.02987 6.04857 5.32003C5.61433 5.61018 5.27587 6.02259 5.07601 6.5051C4.87614 6.98761 4.82385 7.51855 4.92574 8.03079C5.02763 8.54302 5.27912 9.01353 5.64842 9.38283C6.01772 9.75213 6.48823 10.0036 7.00047 10.1055C7.5127 10.2074 8.04364 10.1551 8.52615 9.95524C9.00866 9.75538 9.42107 9.41693 9.71123 8.98268C10.0014 8.54843 10.1563 8.03789 10.1563 7.51563C10.1554 6.81554 9.87698 6.14435 9.38194 5.64931C8.8869 5.15427 8.21572 4.87581 7.51563 4.875ZM7.51563 8.53125C7.31475 8.53125 7.11839 8.47168 6.95138 8.36009C6.78436 8.24849 6.65418 8.08987 6.57731 7.90429C6.50044 7.71871 6.48033 7.5145 6.51952 7.31749C6.5587 7.12047 6.65543 6.93951 6.79747 6.79747C6.93951 6.65543 7.12048 6.5587 7.31749 6.51952C7.5145 6.48033 7.71871 6.50044 7.90429 6.57731C8.08987 6.65418 8.24849 6.78436 8.36009 6.95137C8.47169 7.11839 8.53125 7.31475 8.53125 7.51563C8.53094 7.78489 8.42384 8.04304 8.23344 8.23344C8.04304 8.42384 7.78489 8.53094 7.51563 8.53125Z" fill="#043258"/>
</g>
<defs>
<clipPath id="clip0_117_17387">
<rect width="26" height="26" fill="white"/>
</clipPath>
</defs>
</svg>
