<svg width="26" height="26" viewBox="0 0 26 26" fill="none" xmlns="http://www.w3.org/2000/svg">
<path d="M8.12492 4.33337C6.03409 4.33337 4.33325 6.03421 4.33325 8.12504C4.33325 10.2159 6.03409 11.9167 8.12492 11.9167C10.2158 11.9167 11.9166 10.2159 11.9166 8.12504C11.9166 6.03421 10.2158 4.33337 8.12492 4.33337ZM8.12492 9.75004C7.22575 9.75004 6.49992 9.02421 6.49992 8.12504C6.49992 7.22587 7.22575 6.50004 8.12492 6.50004C9.02409 6.50004 9.74992 7.22587 9.74992 8.12504C9.74992 9.02421 9.02409 9.75004 8.12492 9.75004ZM17.8749 14.0834C15.7841 14.0834 14.0833 15.7842 14.0833 17.875C14.0833 19.9659 15.7841 21.6667 17.8749 21.6667C19.9658 21.6667 21.6666 19.9659 21.6666 17.875C21.6666 15.7842 19.9658 14.0834 17.8749 14.0834ZM17.8749 19.5C16.9758 19.5 16.2499 18.7742 16.2499 17.875C16.2499 16.9759 16.9758 16.25 17.8749 16.25C18.7741 16.25 19.4999 16.9759 19.4999 17.875C19.4999 18.7742 18.7741 19.5 17.8749 19.5ZM20.8974 5.10254C21.3199 5.52504 21.3199 6.20754 20.8974 6.63004L6.62992 20.8975C6.52962 20.9978 6.41055 21.0774 6.27951 21.1317C6.14846 21.186 6.00801 21.2139 5.86617 21.2139C5.72433 21.2139 5.58387 21.186 5.45283 21.1317C5.32179 21.0774 5.20272 20.9978 5.10242 20.8975C5.00212 20.7972 4.92256 20.6782 4.86828 20.5471C4.814 20.4161 4.78606 20.2756 4.78606 20.1338C4.78606 19.9919 4.814 19.8515 4.86828 19.7205C4.92256 19.5894 5.00212 19.4703 5.10242 19.37L19.3699 5.10254C19.4701 5.00211 19.5892 4.92244 19.7202 4.86807C19.8513 4.81371 19.9918 4.78573 20.1337 4.78573C20.2755 4.78573 20.416 4.81371 20.5471 4.86807C20.6781 4.92244 20.7972 5.00211 20.8974 5.10254Z" fill="black"/>
</svg>
