<svg width="141" height="142" viewBox="0 0 141 142" fill="none" xmlns="http://www.w3.org/2000/svg">
<path fill-rule="evenodd" clip-rule="evenodd" d="M70.5006 0.23938C31.6095 0.23938 0.0839844 31.7649 0.0839844 70.656C0.0839844 109.547 31.6095 141.073 70.5006 141.073C109.392 141.073 140.917 109.547 140.917 70.656C140.917 31.7649 109.392 0.23938 70.5006 0.23938ZM45.8548 53.0519C45.8548 49.8153 46.4923 46.6105 47.7309 43.6203C48.9694 40.6302 50.7848 37.9132 53.0734 35.6246C55.362 33.3361 58.0789 31.5207 61.0691 30.2821C64.0593 29.0435 67.2641 28.406 70.5006 28.406C73.7372 28.406 76.942 29.0435 79.9322 30.2821C82.9224 31.5207 85.6393 33.3361 87.9279 35.6246C90.2165 37.9132 92.0319 40.6302 93.2704 43.6203C94.509 46.6105 95.1465 49.8153 95.1465 53.0519C95.1465 59.5884 92.5499 65.8571 87.9279 70.4791C83.3059 75.1011 77.0371 77.6977 70.5006 77.6977C63.9642 77.6977 57.6954 75.1011 53.0734 70.4791C48.4514 65.8571 45.8548 59.5884 45.8548 53.0519ZM114.567 105.752C109.295 112.38 102.593 117.733 94.9629 121.41C87.3327 125.088 78.9707 126.995 70.5006 126.989C62.0306 126.995 53.6686 125.088 46.0384 121.41C38.4082 117.733 31.7068 112.38 26.4339 105.752C37.8484 97.5622 53.4246 91.781 70.5006 91.781C87.5767 91.781 103.153 97.5622 114.567 105.752Z" fill="#043258"/>
</svg>
