<svg width="35" height="35" viewBox="0 0 35 35" fill="none" xmlns="http://www.w3.org/2000/svg">
<path d="M17.5 8.40818e-07C15.5527 -0.000812897 13.651 0.589039 12.046 1.69166C10.4409 2.79428 9.20808 4.3578 8.51025 6.17575C7.78431 5.96658 7.0484 5.7937 6.30525 5.65775C4.77685 5.38093 3.22626 5.24502 1.673 5.25175L1.372 5.25875L1.288 5.26225C0.95995 5.27535 0.648337 5.40933 0.413137 5.63839C0.177936 5.86745 0.0357698 6.17541 0.0139998 6.503L0.0122499 6.538L0.0087502 6.62375C0.0052502 6.69375 0.00291654 6.7935 0.00174987 6.923C-0.00175013 7.1785 1.10827e-07 7.54425 0.0157501 7.994C0.0507501 8.8935 0.1505 10.143 0.40775 11.5553C0.64225 12.8415 1.01675 14.294 1.61525 15.75H1.3125C0.964403 15.75 0.630564 15.8883 0.384422 16.1344C0.138281 16.3806 0 16.7144 0 17.0625V17.5C0 27.1653 7.83475 35 17.5 35C27.1652 35 35 27.1653 35 17.5V17.0625C35 16.7144 34.8617 16.3806 34.6156 16.1344C34.3694 15.8883 34.0356 15.75 33.6875 15.75H33.2448L33.2483 15.5313C33.2472 13.6369 32.6164 11.7966 31.455 10.3C30.2936 8.80346 28.6676 7.73551 26.8328 7.26425C26.3073 5.18723 25.1038 3.3449 23.413 2.0291C21.7222 0.713287 19.6407 -0.000779115 17.4982 8.40818e-07M10.9777 7.07C11.4901 5.76289 12.3836 4.63999 13.5422 3.84708C14.7008 3.05417 16.071 2.62787 17.4749 2.62353C18.8789 2.61919 20.2517 3.03701 21.4152 3.82274C22.5787 4.60847 23.4791 5.72583 23.9995 7.02975C22.4947 7.15659 21.0505 7.68016 19.8141 8.54709C18.5776 9.41403 17.5931 10.5933 16.961 11.9648C16.4891 11.2655 15.9518 10.6127 15.3562 10.0153C14.0455 8.7045 12.5212 7.75775 10.9777 7.07ZM30.625 15.5313C30.625 15.6048 30.6232 15.6777 30.6197 15.75H18.844L18.8125 15.6625V15.5313C18.8125 13.9648 19.4348 12.4625 20.5424 11.3549C21.65 10.2473 23.1523 9.625 24.7188 9.625C26.2852 9.625 27.7875 10.2473 28.8951 11.3549C30.0027 12.4625 30.625 13.9648 30.625 15.5313ZM13.5013 11.872C14.6265 12.9955 15.442 14.3483 16.03 15.75H12.355L9.24 12.635C9.11984 12.506 8.97494 12.4026 8.81394 12.3309C8.65294 12.2591 8.47914 12.2206 8.30291 12.2175C8.12668 12.2144 7.95163 12.2468 7.7882 12.3128C7.62477 12.3788 7.47632 12.4771 7.35168 12.6017C7.22705 12.7263 7.1288 12.8748 7.06279 13.0382C6.99677 13.2016 6.96436 13.3767 6.96746 13.5529C6.97057 13.7291 7.00915 13.9029 7.08088 14.0639C7.15262 14.2249 7.25605 14.3698 7.385 14.49L8.645 15.75H4.4975C3.7275 14.217 3.2655 12.5773 2.9925 11.0828C2.80096 10.0295 2.684 8.964 2.6425 7.89425V7.89075C3.4475 7.9205 4.571 8.00975 5.83275 8.24075C8.38775 8.708 11.361 9.72825 13.5013 11.872ZM4.879 25.375H30.121C28.7843 27.517 26.9243 29.2836 24.7163 30.5082C22.5083 31.7328 20.0249 32.3753 17.5 32.375C14.9751 32.3753 12.4917 31.7328 10.2837 30.5082C8.07566 29.2836 6.21571 27.517 4.879 25.375ZM2.6495 18.375H32.3505C32.2636 19.8717 31.9509 21.3467 31.423 22.75H3.577C3.04912 21.3467 2.73642 19.8717 2.6495 18.375Z" fill="#043258"/>
</svg>
