<svg width="37" height="34" viewBox="0 0 37 34" fill="none" xmlns="http://www.w3.org/2000/svg">
<path d="M34.1453 8.68519L19.8603 0.350029C19.0344 -0.118824 18.0279 -0.118824 17.202 0.363052L2.9299 8.68519C2.72 8.80848 2.55106 8.99186 2.44447 9.2121C2.33788 9.43235 2.29844 9.67956 2.33115 9.92244H2.3105V13.2305C2.3105 13.5105 2.40341 13.7905 2.58923 14.0145C1.40075 14.7334 0.533586 16.0253 0.503906 17.8929C0.531005 19.6069 1.26655 20.8363 2.3105 21.5826V24.2355C2.3105 24.6522 2.51697 25.069 2.9299 25.3034L17.2149 33.6386C18.0279 34.1205 19.0473 34.1205 19.8603 33.6386L34.1453 25.3034C34.5582 25.069 34.7647 24.6522 34.7647 24.2355V21.5878C35.8099 20.8428 36.5506 19.6108 36.5842 17.8929C36.5429 16.0306 35.6718 14.7386 34.4808 14.0197C34.6648 13.7987 34.7654 13.5191 34.7647 13.2305V9.92244H34.7453C34.7779 9.67943 34.7383 9.43212 34.6314 9.21186C34.5246 8.9916 34.3554 8.8083 34.1453 8.68519ZM3.66674 9.75965L17.8485 1.4896C18.2731 1.24215 18.7905 1.23955 19.2215 1.48179L33.4084 9.75965L19.2138 18.0427L19.2073 18.0466C18.797 18.2889 18.2782 18.2889 17.8679 18.0466L3.66674 9.75965ZM3.2138 14.4638L17.2149 22.6336C18.0279 23.1154 19.0473 23.1154 19.8603 22.6336L33.8485 14.4716L34.1324 14.637C34.9453 15.1189 34.9453 16.3041 34.1324 16.7859L19.8474 25.1211C19.0344 25.603 18.015 25.603 17.202 25.1211L2.917 16.7859C2.73122 16.6762 2.57714 16.5192 2.47007 16.3307C2.36299 16.1422 2.30666 15.9287 2.30666 15.7115C2.30666 15.4942 2.36299 15.2807 2.47007 15.0922C2.57714 14.9037 2.73122 14.7468 2.917 14.637L3.2138 14.4638ZM3.47317 22.1764C4.16157 22.41 4.89189 22.4904 5.61399 22.4122C6.29791 22.334 6.94313 22.6987 7.23992 23.3238C8.20774 25.3946 10.5692 26.176 12.5952 25.6551C13.2662 25.4858 13.963 25.7462 14.3244 26.3193C14.6551 27.0969 15.191 27.768 15.8736 28.2595C16.5562 28.7509 17.3594 29.0439 18.1956 29.1063H18.2085C18.3118 29.1194 18.415 29.1194 18.5311 29.1194H18.5569C18.6602 29.1194 18.7634 29.1194 18.8796 29.1063H18.8925C19.7287 29.0439 20.5318 28.7509 21.2145 28.2595C21.8971 27.768 22.433 27.0969 22.7637 26.3193C23.125 25.7462 23.8219 25.4858 24.4929 25.6551C26.506 26.176 28.8803 25.3946 29.8482 23.3238C30.145 22.6987 30.7902 22.334 31.4741 22.4122C32.1658 22.4868 32.8653 22.4159 33.5285 22.2038L32.309 22.9162C32.0737 23.8441 31.6557 24.7147 31.0799 25.4761C30.5042 26.2375 29.7824 26.8742 28.9578 27.3481C27.1775 28.3844 25.0824 28.7254 23.0696 28.3067L19.8474 30.1873C19.0344 30.6692 18.015 30.6692 17.202 30.1873L13.9824 28.3093C11.9726 28.7246 9.8816 28.3827 8.10451 27.3481C7.281 26.8751 6.5601 26.2397 5.98463 25.48C5.40916 24.7202 4.99085 23.8514 4.75456 22.9253L3.47317 22.1764Z" fill="#043258"/>
</svg>
