<svg width="40" height="40" viewBox="0 0 40 40" fill="none" xmlns="http://www.w3.org/2000/svg">
<mask id="mask0_115_5228" style="mask-type:luminance" maskUnits="userSpaceOnUse" x="0" y="0" width="40" height="40">
<path d="M0 0H40V40H0V0Z" fill="white"/>
</mask>
<g mask="url(#mask0_115_5228)">
<path fill-rule="evenodd" clip-rule="evenodd" d="M12.605 0.389987C12.8982 0.164085 13.2517 0.0300093 13.6209 0.00465095C13.9902 -0.0207074 14.3587 0.0637865 14.68 0.247487C16.76 1.43499 18.4475 2.12249 20.07 2.46249C21.68 2.79749 23.33 2.80999 25.36 2.51999C25.6678 2.47583 25.9817 2.50892 26.2736 2.61627C26.5654 2.72362 26.8259 2.90187 27.0318 3.13495C27.2376 3.36804 27.3822 3.64865 27.4526 3.95153C27.523 4.2544 27.5169 4.57003 27.435 4.86999L26.03 10.02C32.3925 14.395 35 25.355 35 31.875C35 36.875 27.5 40 20 40C12.5 40 5 36.875 5 31.875C5 25.355 7.61 14.3875 13.98 10.0125L11.9375 2.35749C11.8424 2.00026 11.8551 1.6229 11.9738 1.27283C12.0926 0.922764 12.3122 0.615615 12.605 0.389987ZM19.98 14C21.32 14.0125 22.59 13.71 23.9925 13.17C25.3675 14.1325 26.61 15.6275 27.7075 17.6325C26.6553 18.4076 25.458 18.9633 24.1867 19.2665C22.9155 19.5697 21.5963 19.6143 20.3075 19.3975C19.8168 19.3159 19.3139 19.4326 18.9093 19.7219C18.5047 20.0112 18.2316 20.4493 18.15 20.94C18.0684 21.4306 18.1851 21.9336 18.4744 22.3382C18.7637 22.7428 19.2018 23.0159 19.6925 23.0975C23.0198 23.6563 26.4357 22.9491 29.2675 21.115C30.625 24.85 31.25 28.92 31.25 31.8725C31.25 32.2475 30.965 33.2925 28.635 34.455C26.4475 35.55 23.295 36.2475 20 36.2475C16.705 36.2475 13.5525 35.55 11.365 34.455C9.035 33.295 8.75 32.25 8.75 31.875C8.75 30.85 8.825 29.69 8.98 28.455C12.9164 30.8373 17.5433 31.8172 22.1075 31.235C22.3562 31.2099 22.5974 31.1353 22.8168 31.0156C23.0363 30.8959 23.2296 30.7335 23.3853 30.5381C23.5411 30.3426 23.6563 30.1179 23.7239 29.8773C23.7916 29.6367 23.8106 29.385 23.7795 29.1369C23.7485 28.8889 23.6683 28.6496 23.5434 28.433C23.4186 28.2165 23.2517 28.0271 23.0526 27.8759C22.8535 27.7248 22.6261 27.615 22.384 27.5531C22.1418 27.4911 21.8897 27.4781 21.6425 27.515C17.345 28.0525 13.2525 26.9525 9.7225 24.4675C10.22 22.4475 10.915 20.4 11.8225 18.5425C13.035 16.07 14.44 14.2675 16.0175 13.1675C17.39 13.6675 18.65 13.99 19.9825 14.0025M16.615 5.33749L17.8125 9.81999C18.7225 10.12 19.395 10.245 20.0175 10.2525C20.635 10.2575 21.3 10.1475 22.1925 9.83749L23.1125 6.46999C20.893 6.52684 18.6844 6.14188 16.615 5.33749Z" fill="white"/>
</g>
</svg>
