<svg width="17" height="17" viewBox="0 0 17 17" fill="none" xmlns="http://www.w3.org/2000/svg">
<path d="M14.4517 1.59375H10.371C10.2442 1.59366 10.1224 1.64379 10.0324 1.7332L1.87437 9.89121C1.69574 10.0707 1.59546 10.3137 1.59546 10.5669C1.59546 10.8201 1.69574 11.0631 1.87437 11.2426L5.75913 15.1273C5.93864 15.306 6.18158 15.4063 6.43482 15.4063C6.68806 15.4063 6.93099 15.306 7.1105 15.1273L15.2652 6.97266C15.3546 6.88263 15.4047 6.76087 15.4046 6.63399V2.55C15.4053 2.42453 15.381 2.30018 15.3334 2.1841C15.2858 2.06803 15.2157 1.96251 15.1271 1.87364C15.0385 1.78476 14.9333 1.71428 14.8174 1.66625C14.7014 1.61821 14.5772 1.59357 14.4517 1.59375Z" stroke="#043258" stroke-linecap="round" stroke-linejoin="round"/>
<path d="M12.75 5.3125C12.5399 5.3125 12.3344 5.25019 12.1597 5.13344C11.985 5.01669 11.8488 4.85075 11.7684 4.6566C11.688 4.46246 11.6669 4.24882 11.7079 4.04272C11.7489 3.83661 11.8501 3.64729 11.9987 3.4987C12.1473 3.35011 12.3366 3.24891 12.5427 3.20792C12.7488 3.16692 12.9625 3.18796 13.1566 3.26838C13.3507 3.3488 13.5167 3.48498 13.6334 3.65971C13.7502 3.83443 13.8125 4.03986 13.8125 4.25C13.8125 4.53179 13.7006 4.80204 13.5013 5.0013C13.302 5.20056 13.0318 5.3125 12.75 5.3125Z" fill="#043258"/>
</svg>
